<mxfile host="app.diagrams.net" modified="2021-05-26T06:04:24.743Z" agent="5.0 (Macintosh; Intel Mac OS X 10_14_6) AppleWebKit/537.36 (KHTML, like Gecko) Chrome/89.0.4389.90 Safari/537.36" etag="6eSQY7dkYk3iNCT0svw6" version="14.7.1" type="github">
  <diagram id="C5RBs43oDa-KdzZeNtuy" name="Page-1">
    <mxGraphModel dx="946" dy="536" grid="1" gridSize="10" guides="1" tooltips="1" connect="1" arrows="1" fold="1" page="1" pageScale="1" pageWidth="827" pageHeight="1169" math="1" shadow="0">
      <root>
        <mxCell id="WIyWlLk6GJQsqaUBKTNV-0" />
        <mxCell id="WIyWlLk6GJQsqaUBKTNV-1" parent="WIyWlLk6GJQsqaUBKTNV-0" />
        <mxCell id="vKn0vAI7lJOk2YTOMezV-2" style="edgeStyle=orthogonalEdgeStyle;rounded=0;orthogonalLoop=1;jettySize=auto;html=1;exitX=0.5;exitY=1;exitDx=0;exitDy=0;exitPerimeter=0;fontSize=13;" edge="1" parent="WIyWlLk6GJQsqaUBKTNV-1" source="vKn0vAI7lJOk2YTOMezV-0" target="vKn0vAI7lJOk2YTOMezV-1">
          <mxGeometry relative="1" as="geometry" />
        </mxCell>
        <mxCell id="vKn0vAI7lJOk2YTOMezV-0" value="预处理：生成秘密共享和Beaver三元组" style="strokeWidth=2;html=1;shape=mxgraph.flowchart.terminator;whiteSpace=wrap;fontSize=13;" vertex="1" parent="WIyWlLk6GJQsqaUBKTNV-1">
          <mxGeometry x="280" y="200" width="130" height="70" as="geometry" />
        </mxCell>
        <mxCell id="vKn0vAI7lJOk2YTOMezV-4" value="" style="edgeStyle=orthogonalEdgeStyle;rounded=0;orthogonalLoop=1;jettySize=auto;html=1;fontSize=13;" edge="1" parent="WIyWlLk6GJQsqaUBKTNV-1" source="vKn0vAI7lJOk2YTOMezV-1" target="vKn0vAI7lJOk2YTOMezV-3">
          <mxGeometry relative="1" as="geometry" />
        </mxCell>
        <mxCell id="vKn0vAI7lJOk2YTOMezV-1" value="输入：消耗秘密共享&lt;br&gt;\([r]\)将输入转换成&lt;br&gt;新的秘密共享" style="shape=parallelogram;html=1;strokeWidth=2;perimeter=parallelogramPerimeter;whiteSpace=wrap;rounded=1;arcSize=12;size=0.23;fontSize=13;" vertex="1" parent="WIyWlLk6GJQsqaUBKTNV-1">
          <mxGeometry x="252.5" y="300" width="185" height="80" as="geometry" />
        </mxCell>
        <mxCell id="vKn0vAI7lJOk2YTOMezV-37" style="edgeStyle=orthogonalEdgeStyle;rounded=0;orthogonalLoop=1;jettySize=auto;html=1;exitX=0.5;exitY=1;exitDx=0;exitDy=0;exitPerimeter=0;fontSize=13;" edge="1" parent="WIyWlLk6GJQsqaUBKTNV-1" source="vKn0vAI7lJOk2YTOMezV-3" target="vKn0vAI7lJOk2YTOMezV-34">
          <mxGeometry relative="1" as="geometry" />
        </mxCell>
        <mxCell id="vKn0vAI7lJOk2YTOMezV-38" value="是" style="edgeLabel;html=1;align=center;verticalAlign=middle;resizable=0;points=[];fontSize=13;" vertex="1" connectable="0" parent="vKn0vAI7lJOk2YTOMezV-37">
          <mxGeometry x="0.0069" y="-1" relative="1" as="geometry">
            <mxPoint as="offset" />
          </mxGeometry>
        </mxCell>
        <mxCell id="vKn0vAI7lJOk2YTOMezV-42" style="edgeStyle=orthogonalEdgeStyle;rounded=0;orthogonalLoop=1;jettySize=auto;html=1;exitX=0.5;exitY=1;exitDx=0;exitDy=0;exitPerimeter=0;fontSize=13;" edge="1" parent="WIyWlLk6GJQsqaUBKTNV-1" source="vKn0vAI7lJOk2YTOMezV-3" target="vKn0vAI7lJOk2YTOMezV-6">
          <mxGeometry relative="1" as="geometry" />
        </mxCell>
        <mxCell id="vKn0vAI7lJOk2YTOMezV-43" value="否" style="edgeLabel;html=1;align=center;verticalAlign=middle;resizable=0;points=[];fontSize=13;" vertex="1" connectable="0" parent="vKn0vAI7lJOk2YTOMezV-42">
          <mxGeometry x="0.1" y="-2" relative="1" as="geometry">
            <mxPoint as="offset" />
          </mxGeometry>
        </mxCell>
        <mxCell id="vKn0vAI7lJOk2YTOMezV-3" value="运算结束？" style="strokeWidth=2;html=1;shape=mxgraph.flowchart.decision;whiteSpace=wrap;fontSize=13;" vertex="1" parent="WIyWlLk6GJQsqaUBKTNV-1">
          <mxGeometry x="295" y="440" width="100" height="100" as="geometry" />
        </mxCell>
        <mxCell id="vKn0vAI7lJOk2YTOMezV-10" style="edgeStyle=orthogonalEdgeStyle;rounded=0;orthogonalLoop=1;jettySize=auto;html=1;exitX=0;exitY=0.5;exitDx=0;exitDy=0;exitPerimeter=0;entryX=0.5;entryY=0;entryDx=0;entryDy=0;fontSize=13;" edge="1" parent="WIyWlLk6GJQsqaUBKTNV-1" source="vKn0vAI7lJOk2YTOMezV-6" target="vKn0vAI7lJOk2YTOMezV-7">
          <mxGeometry relative="1" as="geometry" />
        </mxCell>
        <mxCell id="vKn0vAI7lJOk2YTOMezV-11" value="秘密加法，常数运算" style="edgeLabel;html=1;align=center;verticalAlign=middle;resizable=0;points=[];fontSize=13;" vertex="1" connectable="0" parent="vKn0vAI7lJOk2YTOMezV-10">
          <mxGeometry x="-0.1805" y="-4" relative="1" as="geometry">
            <mxPoint as="offset" />
          </mxGeometry>
        </mxCell>
        <mxCell id="vKn0vAI7lJOk2YTOMezV-12" style="edgeStyle=orthogonalEdgeStyle;rounded=0;orthogonalLoop=1;jettySize=auto;html=1;exitX=0.5;exitY=1;exitDx=0;exitDy=0;exitPerimeter=0;fontSize=13;" edge="1" parent="WIyWlLk6GJQsqaUBKTNV-1" source="vKn0vAI7lJOk2YTOMezV-6" target="vKn0vAI7lJOk2YTOMezV-8">
          <mxGeometry relative="1" as="geometry" />
        </mxCell>
        <mxCell id="vKn0vAI7lJOk2YTOMezV-13" value="秘密乘法" style="edgeLabel;html=1;align=center;verticalAlign=middle;resizable=0;points=[];fontSize=13;" vertex="1" connectable="0" parent="vKn0vAI7lJOk2YTOMezV-12">
          <mxGeometry x="-0.2" relative="1" as="geometry">
            <mxPoint as="offset" />
          </mxGeometry>
        </mxCell>
        <mxCell id="vKn0vAI7lJOk2YTOMezV-14" style="edgeStyle=orthogonalEdgeStyle;rounded=0;orthogonalLoop=1;jettySize=auto;html=1;exitX=1;exitY=0.5;exitDx=0;exitDy=0;exitPerimeter=0;entryX=0.5;entryY=0;entryDx=0;entryDy=0;fontSize=13;" edge="1" parent="WIyWlLk6GJQsqaUBKTNV-1" source="vKn0vAI7lJOk2YTOMezV-6" target="vKn0vAI7lJOk2YTOMezV-9">
          <mxGeometry relative="1" as="geometry" />
        </mxCell>
        <mxCell id="vKn0vAI7lJOk2YTOMezV-15" value="验证" style="edgeLabel;html=1;align=center;verticalAlign=middle;resizable=0;points=[];fontSize=13;" vertex="1" connectable="0" parent="vKn0vAI7lJOk2YTOMezV-14">
          <mxGeometry x="0.3796" y="3" relative="1" as="geometry">
            <mxPoint as="offset" />
          </mxGeometry>
        </mxCell>
        <mxCell id="vKn0vAI7lJOk2YTOMezV-6" value="运算种类？" style="strokeWidth=2;html=1;shape=mxgraph.flowchart.decision;whiteSpace=wrap;fontSize=13;" vertex="1" parent="WIyWlLk6GJQsqaUBKTNV-1">
          <mxGeometry x="295" y="630" width="100" height="100" as="geometry" />
        </mxCell>
        <mxCell id="vKn0vAI7lJOk2YTOMezV-23" style="edgeStyle=orthogonalEdgeStyle;rounded=0;orthogonalLoop=1;jettySize=auto;html=1;exitX=0;exitY=0.5;exitDx=0;exitDy=0;entryX=0;entryY=0.5;entryDx=0;entryDy=0;entryPerimeter=0;fontSize=13;" edge="1" parent="WIyWlLk6GJQsqaUBKTNV-1" source="vKn0vAI7lJOk2YTOMezV-7" target="vKn0vAI7lJOk2YTOMezV-3">
          <mxGeometry relative="1" as="geometry" />
        </mxCell>
        <mxCell id="vKn0vAI7lJOk2YTOMezV-7" value="本地运算" style="rounded=0;whiteSpace=wrap;html=1;fontSize=13;" vertex="1" parent="WIyWlLk6GJQsqaUBKTNV-1">
          <mxGeometry x="110" y="810" width="120" height="60" as="geometry" />
        </mxCell>
        <mxCell id="vKn0vAI7lJOk2YTOMezV-16" style="edgeStyle=orthogonalEdgeStyle;rounded=0;orthogonalLoop=1;jettySize=auto;html=1;exitX=0.5;exitY=1;exitDx=0;exitDy=0;fontSize=13;" edge="1" parent="WIyWlLk6GJQsqaUBKTNV-1" source="vKn0vAI7lJOk2YTOMezV-8">
          <mxGeometry relative="1" as="geometry">
            <mxPoint x="345" y="850" as="targetPoint" />
          </mxGeometry>
        </mxCell>
        <mxCell id="vKn0vAI7lJOk2YTOMezV-41" style="edgeStyle=orthogonalEdgeStyle;rounded=0;orthogonalLoop=1;jettySize=auto;html=1;exitX=0.5;exitY=1;exitDx=0;exitDy=0;fontSize=13;" edge="1" parent="WIyWlLk6GJQsqaUBKTNV-1" source="vKn0vAI7lJOk2YTOMezV-8" target="vKn0vAI7lJOk2YTOMezV-17">
          <mxGeometry relative="1" as="geometry" />
        </mxCell>
        <mxCell id="vKn0vAI7lJOk2YTOMezV-8" value="消耗Beaver三元组运算秘密乘法" style="rounded=0;whiteSpace=wrap;html=1;fontSize=13;" vertex="1" parent="WIyWlLk6GJQsqaUBKTNV-1">
          <mxGeometry x="285" y="810" width="120" height="60" as="geometry" />
        </mxCell>
        <mxCell id="vKn0vAI7lJOk2YTOMezV-21" style="edgeStyle=orthogonalEdgeStyle;rounded=0;orthogonalLoop=1;jettySize=auto;html=1;exitX=0.5;exitY=1;exitDx=0;exitDy=0;fontSize=13;" edge="1" parent="WIyWlLk6GJQsqaUBKTNV-1" source="vKn0vAI7lJOk2YTOMezV-9" target="vKn0vAI7lJOk2YTOMezV-18">
          <mxGeometry relative="1" as="geometry" />
        </mxCell>
        <mxCell id="vKn0vAI7lJOk2YTOMezV-22" value="验证失败" style="edgeLabel;html=1;align=center;verticalAlign=middle;resizable=0;points=[];fontSize=13;" vertex="1" connectable="0" parent="vKn0vAI7lJOk2YTOMezV-21">
          <mxGeometry x="-0.04" y="-4" relative="1" as="geometry">
            <mxPoint as="offset" />
          </mxGeometry>
        </mxCell>
        <mxCell id="vKn0vAI7lJOk2YTOMezV-27" style="edgeStyle=orthogonalEdgeStyle;rounded=0;orthogonalLoop=1;jettySize=auto;html=1;exitX=1;exitY=0.5;exitDx=0;exitDy=0;entryX=1;entryY=0.5;entryDx=0;entryDy=0;entryPerimeter=0;fontSize=13;" edge="1" parent="WIyWlLk6GJQsqaUBKTNV-1" source="vKn0vAI7lJOk2YTOMezV-9" target="vKn0vAI7lJOk2YTOMezV-3">
          <mxGeometry relative="1" as="geometry">
            <mxPoint x="480" y="500" as="targetPoint" />
          </mxGeometry>
        </mxCell>
        <mxCell id="vKn0vAI7lJOk2YTOMezV-28" value="验证成功" style="edgeLabel;html=1;align=center;verticalAlign=middle;resizable=0;points=[];fontSize=13;" vertex="1" connectable="0" parent="vKn0vAI7lJOk2YTOMezV-27">
          <mxGeometry x="-0.1352" y="-1" relative="1" as="geometry">
            <mxPoint as="offset" />
          </mxGeometry>
        </mxCell>
        <mxCell id="vKn0vAI7lJOk2YTOMezV-9" value="两轮广播" style="rounded=0;whiteSpace=wrap;html=1;fontSize=13;" vertex="1" parent="WIyWlLk6GJQsqaUBKTNV-1">
          <mxGeometry x="490" y="800" width="120" height="60" as="geometry" />
        </mxCell>
        <mxCell id="vKn0vAI7lJOk2YTOMezV-19" style="edgeStyle=orthogonalEdgeStyle;rounded=0;orthogonalLoop=1;jettySize=auto;html=1;exitX=1;exitY=0.5;exitDx=0;exitDy=0;fontSize=13;" edge="1" parent="WIyWlLk6GJQsqaUBKTNV-1" source="vKn0vAI7lJOk2YTOMezV-17" target="vKn0vAI7lJOk2YTOMezV-18">
          <mxGeometry relative="1" as="geometry" />
        </mxCell>
        <mxCell id="vKn0vAI7lJOk2YTOMezV-20" value="验证失败" style="edgeLabel;html=1;align=center;verticalAlign=middle;resizable=0;points=[];fontSize=13;" vertex="1" connectable="0" parent="vKn0vAI7lJOk2YTOMezV-19">
          <mxGeometry x="-0.0118" relative="1" as="geometry">
            <mxPoint as="offset" />
          </mxGeometry>
        </mxCell>
        <mxCell id="vKn0vAI7lJOk2YTOMezV-24" style="edgeStyle=orthogonalEdgeStyle;rounded=0;orthogonalLoop=1;jettySize=auto;html=1;exitX=0;exitY=0.5;exitDx=0;exitDy=0;entryX=1;entryY=0.5;entryDx=0;entryDy=0;entryPerimeter=0;fontSize=13;" edge="1" parent="WIyWlLk6GJQsqaUBKTNV-1" source="vKn0vAI7lJOk2YTOMezV-17" target="vKn0vAI7lJOk2YTOMezV-3">
          <mxGeometry relative="1" as="geometry" />
        </mxCell>
        <mxCell id="vKn0vAI7lJOk2YTOMezV-25" value="验证&lt;br style=&quot;font-size: 13px;&quot;&gt;成功" style="edgeLabel;html=1;align=center;verticalAlign=middle;resizable=0;points=[];fontSize=13;" vertex="1" connectable="0" parent="vKn0vAI7lJOk2YTOMezV-24">
          <mxGeometry x="-0.5859" y="-3" relative="1" as="geometry">
            <mxPoint as="offset" />
          </mxGeometry>
        </mxCell>
        <mxCell id="vKn0vAI7lJOk2YTOMezV-17" value="使用sacrifice&lt;br style=&quot;font-size: 13px;&quot;&gt;验证秘密乘法" style="rounded=0;whiteSpace=wrap;html=1;fontSize=13;" vertex="1" parent="WIyWlLk6GJQsqaUBKTNV-1">
          <mxGeometry x="285" y="930" width="120" height="60" as="geometry" />
        </mxCell>
        <mxCell id="vKn0vAI7lJOk2YTOMezV-18" value="停止协议" style="strokeWidth=2;html=1;shape=mxgraph.flowchart.terminator;whiteSpace=wrap;fontSize=13;" vertex="1" parent="WIyWlLk6GJQsqaUBKTNV-1">
          <mxGeometry x="500" y="930" width="100" height="60" as="geometry" />
        </mxCell>
        <mxCell id="vKn0vAI7lJOk2YTOMezV-34" value="得到结果" style="strokeWidth=2;html=1;shape=mxgraph.flowchart.terminator;whiteSpace=wrap;fontSize=13;" vertex="1" parent="WIyWlLk6GJQsqaUBKTNV-1">
          <mxGeometry x="120" y="530" width="100" height="60" as="geometry" />
        </mxCell>
      </root>
    </mxGraphModel>
  </diagram>
</mxfile>
